# xmcd
#
# Track frame offsets:
#	182
#	18600
#	33397
#	54762
#	70112
#	89887
#	108337
#	127650
#	141257
#	157362
#
# Disc length: 2318 seconds
#
# Revision: 1
# Processed by: cddbd v1.5.2PL0 Copyright (c) Steve Scherf et al.
# Submitted via: EasyCDDAExtractor 12.0.1.1
#
DISCID=88090c0a
DTITLE=Hilario Camacho - Subir Subir
DYEAR=1983
DGENRE=Latin
TTITLE0=Tus Ojos
TTITLE1=Taxi
TTITLE2=Estrella Polar
TTITLE3=Licantropia
TTITLE4=Subir Subir
TTITLE5=Negra Noche
TTITLE6=Chica De Papel
TTITLE7=Nicotina
TTITLE8=Sin Dar La Cara
TTITLE9=Sin Decir Adios
EXTD=ID3G: 86
EXTT0=
EXTT1=
EXTT2=
EXTT3=
EXTT4=
EXTT5=
EXTT6=
EXTT7=
EXTT8=
EXTT9=
PLAYORDER=
